<svg xmlns="http://www.w3.org/2000/svg" xmlns:xlink="http://www.w3.org/1999/xlink" xmlns:s="https://github.com/nturley/netlistsvg" width="252" height="214"><style>svg {
  stroke:#000;
  fill:none;
}
text {
  fill:#000;
  stroke:none;
  font-size:10px;
  font-weight: bold;
  font-family: "Courier New", monospace;
}
line {
    stroke-linecap: round;
}
.nodelabel {
  text-anchor: middle;
}
.inputPortLabel {
  text-anchor: end;
}
.splitjoinBody {
  fill:#000;
}</style><g s:type="dff" transform="translate(144,162)" s:width="30" s:height="40" id="cell_$procdff$127"><s:alias val="$dff"/><s:alias val="$_DFF_"/><s:alias val="$_DFF_P_"/><s:alias val="$adff"/><s:alias val="$_DFF_"/><s:alias val="$_DFF_P_"/><s:alias val="$sdff"/><s:alias val="$_DFF_"/><s:alias val="$_DFF_P_"/><rect width="30" height="40" x="0" y="0" class="cell_$procdff$127"/><path d="M0,35 L5,30 L0,25" class="cell_$procdff$127"/><g s:x="31" s:y="10" s:pid="Q"/><g s:x="-1" s:y="30" s:pid="CLK"/><g s:x="-1" s:y="30" s:pid="C"/><g s:x="-1" s:y="10" s:pid="D"/><g s:x="15" s:y="40" s:pid="ARST"/><g s:x="15" s:y="40" s:pid="SRST"/></g><g s:type="mux" transform="translate(81.33333333333333,67)" s:width="20" s:height="40" id="cell_$procmux$125"><s:alias val="$pmux"/><s:alias val="$mux"/><s:alias val="$_MUX_"/><path d="M0,0 L20,10 L20,30 L0,40 Z" class="cell_$procmux$125"/><text x="5" y="32" class="nodelabel cell_$procmux$125" s:attribute="">1</text><text x="5" y="13" class="nodelabel cell_$procmux$125" s:attribute="">0</text><g s:x="0" s:y="10" s:pid="A"/><g s:x="0" s:y="30" s:pid="B"/><g s:x="10" s:y="35" s:pid="S"/><g s:x="20" s:y="20" s:pid="Y"/></g><g s:type="inputExt" transform="translate(78,182)" s:width="30" s:height="20" id="cell_clk"><text x="15" y="-4" class="nodelabel cell_clk" s:attribute="ref">clk</text><s:alias val="$_inputExt_"/><path d="M0,0 L0,20 L15,20 L30,10 L15,0 Z" class="cell_clk"/><g s:x="30" s:y="10" s:pid="Y"/></g><g s:type="inputExt" transform="translate(12,152)" s:width="30" s:height="20" id="cell_in"><text x="15" y="-4" class="nodelabel cell_in" s:attribute="ref">in</text><s:alias val="$_inputExt_"/><path d="M0,0 L0,20 L15,20 L30,10 L15,0 Z" class="cell_in"/><g s:x="30" s:y="10" s:pid="Y"/></g><g s:type="outputExt" transform="translate(210,162)" s:width="30" s:height="20" id="cell_out"><text x="15" y="-4" class="nodelabel cell_out" s:attribute="ref">out</text><s:alias val="$_outputExt_"/><path d="M30,0 L30,20 L15,20 L0,10 L15,0 Z" class="cell_out"/><g s:x="0" s:y="10" s:pid="A"/></g><g s:type="constant" transform="translate(12,22)" s:width="30" s:height="20" id="cell_0"><text x="15" y="-4" class="nodelabel cell_0" s:attribute="ref">0</text><s:alias val="$_constant_"/><rect width="30" height="20" class="cell_0"/><g s:x="31" s:y="10" s:pid="Y"/></g><g s:type="constant" transform="translate(12,87)" s:width="30" s:height="20" id="cell_1"><text x="15" y="-4" class="nodelabel cell_1" s:attribute="ref">1</text><s:alias val="$_constant_"/><rect width="30" height="20" class="cell_1"/><g s:x="31" s:y="10" s:pid="Y"/></g><line x1="108" x2="143" y1="192" y2="192" class="net_2 width_1" style="stroke-width: 1"/><line x1="101.33333333333333" x2="118" y1="87" y2="87" class="net_5 width_1" style="stroke-width: 1"/><line x1="118" x2="118" y1="87" y2="172" class="net_5 width_1" style="stroke-width: 1"/><line x1="118" x2="143" y1="172" y2="172" class="net_5 width_1" style="stroke-width: 1"/><line x1="43" x2="53" y1="32" y2="32" class="net_6 width_1" style="stroke-width: 1"/><line x1="53" x2="53" y1="32" y2="77" class="net_6 width_1" style="stroke-width: 1"/><line x1="53" x2="81.33333333333333" y1="77" y2="77" class="net_6 width_1" style="stroke-width: 1"/><line x1="43" x2="81.33333333333333" y1="97" y2="97" class="net_7 width_1" style="stroke-width: 1"/><line x1="42" x2="91.33333333333333" y1="162" y2="162" class="net_3 width_1" style="stroke-width: 1"/><line x1="91.33333333333333" x2="91.33333333333333" y1="162" y2="102" class="net_3 width_1" style="stroke-width: 1"/><line x1="175" x2="210" y1="172" y2="172" class="net_4 width_1" style="stroke-width: 1"/></svg>