<svg xmlns="http://www.w3.org/2000/svg" xmlns:xlink="http://www.w3.org/1999/xlink" xmlns:s="https://github.com/nturley/netlistsvg" width="729" height="262"><style>svg {
  stroke:#000;
  fill:none;
}
text {
  fill:#000;
  stroke:none;
  font-size:10px;
  font-weight: bold;
  font-family: "Courier New", monospace;
}
line {
    stroke-linecap: round;
}
.nodelabel {
  text-anchor: middle;
}
.inputPortLabel {
  text-anchor: end;
}
.splitjoinBody {
  fill:#000;
}</style><g s:type="le" transform="translate(308,134)" s:width="25" s:height="25" id="cell_$le$../../../05_Computer_Architecture/Clock25_Reset20.v:37$124"><s:alias val="$le"/><circle r="12.5" cx="12.5" cy="12.5" class="cell_$le$../../../05_Computer_Architecture/Clock25_Reset20.v:37$124"/><line x1="6" x2="17" y1="11" y2="6" class="cell_$le$../../../05_Computer_Architecture/Clock25_Reset20.v:37$124"/><line x1="6" x2="17" y1="11" y2="16" class="cell_$le$../../../05_Computer_Architecture/Clock25_Reset20.v:37$124"/><line x1="6" x2="17" y1="14" y2="19" class="cell_$le$../../../05_Computer_Architecture/Clock25_Reset20.v:37$124"/><g s:x="2" s:y="5" s:pid="A"/><g s:x="2" s:y="20" s:pid="B"/><g s:x="25" s:y="12.5" s:pid="Y"/></g><g s:type="and" transform="translate(434,142)" s:width="30" s:height="25" id="cell_$logic_and$../../../05_Computer_Architecture/Clock25_Reset20.v:42$128"><s:alias val="$and"/><s:alias val="$logic_and"/><s:alias val="$_AND_"/><s:alias val="$reduce_and"/><path d="M0,0 L0,25 L15,25 A15 12.5 0 0 0 15,0 Z" class="cell_$logic_and$../../../05_Computer_Architecture/Clock25_Reset20.v:42$128"/><g s:x="0" s:y="5" s:pid="A"/><g s:x="0" s:y="20" s:pid="B"/><g s:x="30" s:y="12.5" s:pid="Y"/></g><g s:type="not" transform="translate(369,137)" s:width="30" s:height="20" id="cell_$logic_not$../../../05_Computer_Architecture/Clock25_Reset20.v:42$126"><s:alias val="$_NOT_"/><s:alias val="$not"/><s:alias val="$logic_not"/><path d="M0,0 L0,20 L20,10 Z" class="cell_$logic_not$../../../05_Computer_Architecture/Clock25_Reset20.v:42$126"/><circle cx="24" cy="10" r="3" class="cell_$logic_not$../../../05_Computer_Architecture/Clock25_Reset20.v:42$126"/><g s:x="-1" s:y="10" s:pid="A"/><g s:x="27" s:y="10" s:pid="Y"/></g><g s:type="not" transform="translate(369,192)" s:width="30" s:height="20" id="cell_$logic_not$../../../05_Computer_Architecture/Clock25_Reset20.v:42$127"><s:alias val="$_NOT_"/><s:alias val="$not"/><s:alias val="$logic_not"/><path d="M0,0 L0,20 L20,10 Z" class="cell_$logic_not$../../../05_Computer_Architecture/Clock25_Reset20.v:42$127"/><circle cx="24" cy="10" r="3" class="cell_$logic_not$../../../05_Computer_Architecture/Clock25_Reset20.v:42$127"/><g s:x="-1" s:y="10" s:pid="A"/><g s:x="27" s:y="10" s:pid="Y"/></g><g s:type="not" transform="translate(622,22)" s:width="30" s:height="20" id="cell_$not$../../../05_Computer_Architecture/Clock25_Reset20.v:47$129"><s:alias val="$_NOT_"/><s:alias val="$not"/><s:alias val="$logic_not"/><path d="M0,0 L0,20 L20,10 Z" class="cell_$not$../../../05_Computer_Architecture/Clock25_Reset20.v:47$129"/><circle cx="24" cy="10" r="3" class="cell_$not$../../../05_Computer_Architecture/Clock25_Reset20.v:47$129"/><g s:x="-1" s:y="10" s:pid="A"/><g s:x="27" s:y="10" s:pid="Y"/></g><g s:type="dff" transform="translate(555,22)" s:width="30" s:height="40" id="cell_$procdff$137"><s:alias val="$dff"/><s:alias val="$_DFF_"/><s:alias val="$_DFF_P_"/><s:alias val="$adff"/><s:alias val="$_DFF_"/><s:alias val="$_DFF_P_"/><s:alias val="$sdff"/><s:alias val="$_DFF_"/><s:alias val="$_DFF_P_"/><rect width="30" height="40" x="0" y="0" class="cell_$procdff$137"/><path d="M0,35 L5,30 L0,25" class="cell_$procdff$137"/><g s:x="31" s:y="10" s:pid="Q"/><g s:x="-1" s:y="30" s:pid="CLK"/><g s:x="-1" s:y="30" s:pid="C"/><g s:x="-1" s:y="10" s:pid="D"/><g s:x="15" s:y="40" s:pid="ARST"/><g s:x="15" s:y="40" s:pid="SRST"/></g><g s:type="mux" transform="translate(499,71)" s:width="20" s:height="40" id="cell_$procmux$134"><s:alias val="$pmux"/><s:alias val="$mux"/><s:alias val="$_MUX_"/><path d="M0,0 L20,10 L20,30 L0,40 Z" class="cell_$procmux$134"/><text x="5" y="32" class="nodelabel cell_$procmux$134" s:attribute="">1</text><text x="5" y="13" class="nodelabel cell_$procmux$134" s:attribute="">0</text><g s:x="0" s:y="10" s:pid="A"/><g s:x="0" s:y="30" s:pid="B"/><g s:x="10" s:y="35" s:pid="S"/><g s:x="20" s:y="20" s:pid="Y"/></g><g s:type="generic" transform="translate(180,82)" s:width="30" s:height="40" id="cell_prescaler"><text x="15" y="-4" class="nodelabel cell_prescaler" s:attribute="ref">PC</text><rect width="30" height="100" s:generic="body" class="cell_prescaler"/><g transform="translate(0,10)" s:x="0" s:y="10" s:pid="in0" id="port_prescaler~clk"><text x="-3" y="-4" class="inputPortLabel cell_prescaler">clk</text></g><g transform="translate(0,30)" s:x="0" s:y="10" s:pid="in0" id="port_prescaler~in"><text x="-3" y="-4" class="inputPortLabel cell_prescaler">in</text></g><g transform="translate(0,50)" s:x="0" s:y="10" s:pid="in0" id="port_prescaler~inc"><text x="-3" y="-4" class="inputPortLabel cell_prescaler">inc</text></g><g transform="translate(0,70)" s:x="0" s:y="10" s:pid="in0" id="port_prescaler~load"><text x="-3" y="-4" class="inputPortLabel cell_prescaler">load</text></g><g transform="translate(0,90)" s:x="0" s:y="10" s:pid="in0" id="port_prescaler~reset"><text x="-3" y="-4" class="inputPortLabel cell_prescaler">reset</text></g><g transform="translate(30,10)" s:x="30" s:y="10" s:pid="out0" id="port_prescaler~out"><text x="5" y="-4" style="fill:#000; stroke:none" class="cell_prescaler">out</text></g></g><g s:type="inputExt" transform="translate(78,42)" s:width="30" s:height="20" id="cell_CLK"><text x="15" y="-4" class="nodelabel cell_CLK" s:attribute="ref">CLK</text><s:alias val="$_inputExt_"/><path d="M0,0 L0,20 L15,20 L30,10 L15,0 Z" class="cell_CLK"/><g s:x="30" s:y="10" s:pid="Y"/></g><g s:type="outputExt" transform="translate(369,82)" s:width="30" s:height="20" id="cell_clk"><text x="15" y="-4" class="nodelabel cell_clk" s:attribute="ref">clk</text><s:alias val="$_outputExt_"/><path d="M30,0 L30,20 L15,20 L0,10 L15,0 Z" class="cell_clk"/><g s:x="0" s:y="10" s:pid="A"/></g><g s:type="outputExt" transform="translate(687,22)" s:width="30" s:height="20" id="cell_reset"><text x="15" y="-4" class="nodelabel cell_reset" s:attribute="ref">reset</text><s:alias val="$_outputExt_"/><path d="M30,0 L30,20 L15,20 L0,10 L15,0 Z" class="cell_reset"/><g s:x="0" s:y="10" s:pid="A"/></g><g s:type="constant" transform="translate(180,230)" s:width="30" s:height="20" id="cell_11111010000"><text x="15" y="-4" class="nodelabel cell_11111010000" s:attribute="ref">0x7d0</text><s:alias val="$_constant_"/><rect width="30" height="20" class="cell_11111010000"/><g s:x="31" s:y="10" s:pid="Y"/></g><g s:type="constant" transform="translate(78,107)" s:width="30" s:height="20" id="cell_1"><text x="15" y="-4" class="nodelabel cell_1" s:attribute="ref">1</text><s:alias val="$_constant_"/><rect width="30" height="20" class="cell_1"/><g s:x="31" s:y="10" s:pid="Y"/></g><g s:type="constant" transform="translate(12,156)" s:width="30" s:height="20" id="cell_0000000000000000"><text x="15" y="-4" class="nodelabel cell_0000000000000000" s:attribute="ref">0x0</text><s:alias val="$_constant_"/><rect width="30" height="20" class="cell_0000000000000000"/><g s:x="31" s:y="10" s:pid="Y"/></g><g s:type="constant" transform="translate(78,215)" s:width="30" s:height="20" id="cell_0"><text x="15" y="-4" class="nodelabel cell_0" s:attribute="ref">0</text><s:alias val="$_constant_"/><rect width="30" height="20" class="cell_0"/><g s:x="31" s:y="10" s:pid="Y"/></g><g s:type="split" transform="translate(321,81)" s:width="5" s:height="40" id="cell_$split$,5,3,6,7,8,9,10,11,12,13,14,15,16,17,18,19,"><rect width="5" height="20" class="splitjoinBody" s:generic="body"/><s:alias val="$_split_"/><g s:x="0" s:y="20" s:pid="in"/><g transform="translate(4,10)" s:x="4" s:y="10" s:pid="out0"><text x="5" y="-4">1</text></g></g><line x1="211" x2="244" y1="93" y2="93" class="net_5,3,6,7,8,9,10,11,12,13,14,15,16,17,18,19 width_16" style="stroke-width: 2"/><line x1="244" x2="244" y1="93" y2="130" class="net_5,3,6,7,8,9,10,11,12,13,14,15,16,17,18,19 width_16" style="stroke-width: 2"/><line x1="244" x2="283" y1="130" y2="130" class="net_5,3,6,7,8,9,10,11,12,13,14,15,16,17,18,19 width_16" style="stroke-width: 2"/><line x1="283" x2="283" y1="130" y2="139" class="net_5,3,6,7,8,9,10,11,12,13,14,15,16,17,18,19 width_16" style="stroke-width: 2"/><circle cx="244" cy="93" r="3" style="fill:#000" class="net_5,3,6,7,8,9,10,11,12,13,14,15,16,17,18,19 width_16"/><line x1="283" x2="310" y1="139" y2="139" class="net_5,3,6,7,8,9,10,11,12,13,14,15,16,17,18,19 width_16" style="stroke-width: 2"/><line x1="211" x2="283" y1="93" y2="93" class="net_5,3,6,7,8,9,10,11,12,13,14,15,16,17,18,19 width_16" style="stroke-width: 2"/><line x1="283" x2="283" y1="93" y2="114" class="net_5,3,6,7,8,9,10,11,12,13,14,15,16,17,18,19 width_16" style="stroke-width: 2"/><line x1="283" x2="321.5" y1="114" y2="114" class="net_5,3,6,7,8,9,10,11,12,13,14,15,16,17,18,19 width_16" style="stroke-width: 2"/><line x1="321.5" x2="321.5" y1="114" y2="102" class="net_5,3,6,7,8,9,10,11,12,13,14,15,16,17,18,19 width_16" style="stroke-width: 2"/><line x1="211" x2="244" y1="240" y2="240" class="net_26,27,28,29,30,31,32,33,34,35,36 width_11" style="stroke-width: 2"/><line x1="244" x2="244" y1="240" y2="154" class="net_26,27,28,29,30,31,32,33,34,35,36 width_11" style="stroke-width: 2"/><line x1="244" x2="310" y1="154" y2="154" class="net_26,27,28,29,30,31,32,33,34,35,36 width_11" style="stroke-width: 2"/><line x1="396" x2="434" y1="147" y2="147" class="net_21 width_1" style="stroke-width: 1"/><line x1="396" x2="409" y1="202" y2="202" class="net_22 width_1" style="stroke-width: 1"/><line x1="409" x2="409" y1="202" y2="162" class="net_22 width_1" style="stroke-width: 1"/><line x1="409" x2="434" y1="162" y2="162" class="net_22 width_1" style="stroke-width: 1"/><line x1="333" x2="368" y1="147" y2="147" class="net_20 width_1" style="stroke-width: 1"/><line x1="586" x2="596" y1="32" y2="32" class="net_24 width_1" style="stroke-width: 1"/><line x1="596" x2="596" y1="32" y2="222" class="net_24 width_1" style="stroke-width: 1"/><line x1="596" x2="343" y1="222" y2="222" class="net_24 width_1" style="stroke-width: 1"/><line x1="343" x2="343" y1="222" y2="202" class="net_24 width_1" style="stroke-width: 1"/><line x1="343" x2="368" y1="202" y2="202" class="net_24 width_1" style="stroke-width: 1"/><line x1="586" x2="621" y1="32" y2="32" class="net_24 width_1" style="stroke-width: 1"/><line x1="586" x2="596" y1="32" y2="32" class="net_24 width_1" style="stroke-width: 1"/><line x1="596" x2="596" y1="32" y2="12" class="net_24 width_1" style="stroke-width: 1"/><line x1="596" x2="529" y1="12" y2="12" class="net_24 width_1" style="stroke-width: 1"/><line x1="529" x2="529" y1="12" y2="61" class="net_24 width_1" style="stroke-width: 1"/><line x1="529" x2="484" y1="61" y2="61" class="net_24 width_1" style="stroke-width: 1"/><line x1="484" x2="484" y1="61" y2="81" class="net_24 width_1" style="stroke-width: 1"/><circle cx="596" cy="32" r="2" style="fill:#000" class="net_24 width_1"/><line x1="484" x2="499" y1="81" y2="81" class="net_24 width_1" style="stroke-width: 1"/><line x1="108" x2="554" y1="52" y2="52" class="net_2 width_1" style="stroke-width: 1"/><line x1="108" x2="129" y1="52" y2="52" class="net_2 width_1" style="stroke-width: 1"/><line x1="129" x2="129" y1="52" y2="93" class="net_2 width_1" style="stroke-width: 1"/><circle cx="129" cy="52" r="2" style="fill:#000" class="net_2 width_1"/><line x1="129" x2="180" y1="93" y2="93" class="net_2 width_1" style="stroke-width: 1"/><line x1="519" x2="539" y1="91" y2="91" class="net_25 width_1" style="stroke-width: 1"/><line x1="539" x2="539" y1="91" y2="32" class="net_25 width_1" style="stroke-width: 1"/><line x1="539" x2="554" y1="32" y2="32" class="net_25 width_1" style="stroke-width: 1"/><line x1="109" x2="119" y1="117" y2="117" class="net_37 width_1" style="stroke-width: 1"/><line x1="119" x2="119" y1="117" y2="61" class="net_37 width_1" style="stroke-width: 1"/><line x1="119" x2="474" y1="61" y2="61" class="net_37 width_1" style="stroke-width: 1"/><line x1="474" x2="474" y1="61" y2="101" class="net_37 width_1" style="stroke-width: 1"/><circle cx="119" cy="117" r="2" style="fill:#000" class="net_37 width_1"/><line x1="474" x2="499" y1="101" y2="101" class="net_37 width_1" style="stroke-width: 1"/><line x1="109" x2="119" y1="117" y2="117" class="net_37 width_1" style="stroke-width: 1"/><line x1="119" x2="119" y1="117" y2="133" class="net_37 width_1" style="stroke-width: 1"/><line x1="119" x2="180" y1="133" y2="133" class="net_37 width_1" style="stroke-width: 1"/><line x1="464" x2="509" y1="155" y2="155" class="net_23 width_1" style="stroke-width: 1"/><line x1="509" x2="509" y1="155" y2="106" class="net_23 width_1" style="stroke-width: 1"/><line x1="43" x2="129" y1="166" y2="166" class="net_38,39,40,41,42,43,44,45,46,47,48,49,50,51,52,53 width_16" style="stroke-width: 2"/><line x1="129" x2="129" y1="166" y2="113" class="net_38,39,40,41,42,43,44,45,46,47,48,49,50,51,52,53 width_16" style="stroke-width: 2"/><line x1="129" x2="180" y1="113" y2="113" class="net_38,39,40,41,42,43,44,45,46,47,48,49,50,51,52,53 width_16" style="stroke-width: 2"/><line x1="109" x2="139" y1="225" y2="225" class="net_55 width_1" style="stroke-width: 1"/><line x1="139" x2="139" y1="225" y2="153" class="net_55 width_1" style="stroke-width: 1"/><line x1="139" x2="180" y1="153" y2="153" class="net_55 width_1" style="stroke-width: 1"/><line x1="109" x2="139" y1="225" y2="225" class="net_55 width_1" style="stroke-width: 1"/><line x1="139" x2="139" y1="225" y2="173" class="net_55 width_1" style="stroke-width: 1"/><circle cx="139" cy="173" r="2" style="fill:#000" class="net_55 width_1"/><line x1="139" x2="180" y1="173" y2="173" class="net_55 width_1" style="stroke-width: 1"/><line x1="326" x2="369" y1="92" y2="92" class="net_3 width_1" style="stroke-width: 1"/><line x1="649" x2="687" y1="32" y2="32" class="net_4 width_1" style="stroke-width: 1"/><rect x="270" y="88" width="22" height="9" class="net_5,3,6,7,8,9,10,11,12,13,14,15,16,17,18,19 width_16 busLabel_16" style="fill: white; stroke: none"/><text x="269" y="96" class="net_5,3,6,7,8,9,10,11,12,13,14,15,16,17,18,19 width_16 busLabel_16">/16/</text><rect x="270" y="88" width="22" height="9" class="net_5,3,6,7,8,9,10,11,12,13,14,15,16,17,18,19 width_16 busLabel_16" style="fill: white; stroke: none"/><text x="269" y="96" class="net_5,3,6,7,8,9,10,11,12,13,14,15,16,17,18,19 width_16 busLabel_16">/16/</text><rect x="270" y="149" width="22" height="9" class="net_26,27,28,29,30,31,32,33,34,35,36 width_11 busLabel_11" style="fill: white; stroke: none"/><text x="269" y="157" class="net_26,27,28,29,30,31,32,33,34,35,36 width_11 busLabel_11">/11/</text><rect x="92.5" y="161" width="22" height="9" class="net_38,39,40,41,42,43,44,45,46,47,48,49,50,51,52,53 width_16 busLabel_16" style="fill: white; stroke: none"/><text x="91.5" y="169" class="net_38,39,40,41,42,43,44,45,46,47,48,49,50,51,52,53 width_16 busLabel_16">/16/</text></svg>