<svg xmlns="http://www.w3.org/2000/svg" xmlns:xlink="http://www.w3.org/1999/xlink" xmlns:s="https://github.com/nturley/netlistsvg" width="187" height="119"><style>svg {
  stroke:#000;
  fill:none;
}
text {
  fill:#000;
  stroke:none;
  font-size:10px;
  font-weight: bold;
  font-family: "Courier New", monospace;
}
line {
    stroke-linecap: round;
}
.nodelabel {
  text-anchor: middle;
}
.inputPortLabel {
  text-anchor: end;
}
.splitjoinBody {
  fill:#000;
}</style><g s:type="reduce_xor" transform="translate(77,27)" s:width="33" s:height="25" id="cell_$xor$../../../01_Boolean_Logic/Xor.v:14$6"><s:alias val="$xor"/><s:alias val="$reduce_xor"/><s:alias val="$_XOR_"/><path d="M3,0 A30 25 0 0 1 3,25 A30 25 0 0 0 33,12.5 A30 25 0 0 0 3,0" class="cell_$xor$../../../01_Boolean_Logic/Xor.v:14$6"/><path d="M0,0 A30 25 0 0 1 0,25" class="cell_$xor$../../../01_Boolean_Logic/Xor.v:14$6"/><g s:x="2" s:y="5" s:pid="A"/><g s:x="2" s:y="20" s:pid="B"/><g s:x="33" s:y="12.5" s:pid="Y"/></g><g s:type="inputExt" transform="translate(12,22)" s:width="30" s:height="20" id="cell_a"><text x="15" y="-4" class="nodelabel cell_a" s:attribute="ref">a</text><s:alias val="$_inputExt_"/><path d="M0,0 L0,20 L15,20 L30,10 L15,0 Z" class="cell_a"/><g s:x="30" s:y="10" s:pid="Y"/></g><g s:type="inputExt" transform="translate(12,87)" s:width="30" s:height="20" id="cell_b"><text x="15" y="-4" class="nodelabel cell_b" s:attribute="ref">b</text><s:alias val="$_inputExt_"/><path d="M0,0 L0,20 L15,20 L30,10 L15,0 Z" class="cell_b"/><g s:x="30" s:y="10" s:pid="Y"/></g><g s:type="outputExt" transform="translate(145,30)" s:width="30" s:height="20" id="cell_out"><text x="15" y="-4" class="nodelabel cell_out" s:attribute="ref">out</text><s:alias val="$_outputExt_"/><path d="M30,0 L30,20 L15,20 L0,10 L15,0 Z" class="cell_out"/><g s:x="0" s:y="10" s:pid="A"/></g><line x1="42" x2="79" y1="32" y2="32" class="net_2 width_1" style="stroke-width: 1"/><line x1="42" x2="52" y1="97" y2="97" class="net_3 width_1" style="stroke-width: 1"/><line x1="52" x2="52" y1="97" y2="47" class="net_3 width_1" style="stroke-width: 1"/><line x1="52" x2="79" y1="47" y2="47" class="net_3 width_1" style="stroke-width: 1"/><line x1="110" x2="145" y1="40" y2="40" class="net_4 width_1" style="stroke-width: 1"/></svg>