<svg xmlns="http://www.w3.org/2000/svg" xmlns:xlink="http://www.w3.org/1999/xlink" xmlns:s="https://github.com/nturley/netlistsvg" width="233" height="217"><style>svg {
  stroke:#000;
  fill:none;
}
text {
  fill:#000;
  stroke:none;
  font-size:10px;
  font-weight: bold;
  font-family: "Courier New", monospace;
}
line {
    stroke-linecap: round;
}
.nodelabel {
  text-anchor: middle;
}
.inputPortLabel {
  text-anchor: end;
}
.splitjoinBody {
  fill:#000;
}</style><g s:type="mux" transform="translate(181,90)" s:width="20" s:height="40" id="cell_$ternary$../../../03_Sequential_Logic/Bit.v:21$107"><s:alias val="$pmux"/><s:alias val="$mux"/><s:alias val="$_MUX_"/><path d="M0,0 L20,10 L20,30 L0,40 Z" class="cell_$ternary$../../../03_Sequential_Logic/Bit.v:21$107"/><text x="5" y="32" class="nodelabel cell_$ternary$../../../03_Sequential_Logic/Bit.v:21$107" s:attribute="">1</text><text x="5" y="13" class="nodelabel cell_$ternary$../../../03_Sequential_Logic/Bit.v:21$107" s:attribute="">0</text><g s:x="0" s:y="10" s:pid="A"/><g s:x="0" s:y="30" s:pid="B"/><g s:x="10" s:y="35" s:pid="S"/><g s:x="20" s:y="20" s:pid="Y"/></g><g s:type="generic" transform="translate(96,22)" s:width="30" s:height="40" id="cell_dff"><text x="15" y="-4" class="nodelabel cell_dff" s:attribute="ref">DFF</text><rect width="30" height="40" s:generic="body" class="cell_dff"/><g transform="translate(0,10)" s:x="0" s:y="10" s:pid="in0" id="port_dff~clk"><text x="-3" y="-4" class="inputPortLabel cell_dff">clk</text></g><g transform="translate(0,30)" s:x="0" s:y="10" s:pid="in0" id="port_dff~in"><text x="-3" y="-4" class="inputPortLabel cell_dff">in</text></g><g transform="translate(30,10)" s:x="30" s:y="10" s:pid="out0" id="port_dff~out"><text x="5" y="-4" style="fill:#000; stroke:none" class="cell_dff">out</text></g></g><g s:type="inputExt" transform="translate(12,23)" s:width="30" s:height="20" id="cell_clk"><text x="15" y="-4" class="nodelabel cell_clk" s:attribute="ref">clk</text><s:alias val="$_inputExt_"/><path d="M0,0 L0,20 L15,20 L30,10 L15,0 Z" class="cell_clk"/><g s:x="30" s:y="10" s:pid="Y"/></g><g s:type="inputExt" transform="translate(96,110)" s:width="30" s:height="20" id="cell_in"><text x="15" y="-4" class="nodelabel cell_in" s:attribute="ref">in</text><s:alias val="$_inputExt_"/><path d="M0,0 L0,20 L15,20 L30,10 L15,0 Z" class="cell_in"/><g s:x="30" s:y="10" s:pid="Y"/></g><g s:type="inputExt" transform="translate(96,175)" s:width="30" s:height="20" id="cell_load"><text x="15" y="-4" class="nodelabel cell_load" s:attribute="ref">load</text><s:alias val="$_inputExt_"/><path d="M0,0 L0,20 L15,20 L30,10 L15,0 Z" class="cell_load"/><g s:x="30" s:y="10" s:pid="Y"/></g><g s:type="outputExt" transform="translate(181,23)" s:width="30" s:height="20" id="cell_out"><text x="15" y="-4" class="nodelabel cell_out" s:attribute="ref">out</text><s:alias val="$_outputExt_"/><path d="M30,0 L30,20 L15,20 L0,10 L15,0 Z" class="cell_out"/><g s:x="0" s:y="10" s:pid="A"/></g><line x1="127" x2="156" y1="33" y2="33" class="net_5 width_1" style="stroke-width: 1"/><line x1="156" x2="156" y1="33" y2="100" class="net_5 width_1" style="stroke-width: 1"/><circle cx="156" cy="33" r="2" style="fill:#000" class="net_5 width_1"/><line x1="156" x2="181" y1="100" y2="100" class="net_5 width_1" style="stroke-width: 1"/><line x1="127" x2="181" y1="33" y2="33" class="net_5 width_1" style="stroke-width: 1"/><line x1="126" x2="181" y1="120" y2="120" class="net_3 width_1" style="stroke-width: 1"/><line x1="126" x2="191" y1="185" y2="185" class="net_4 width_1" style="stroke-width: 1"/><line x1="191" x2="191" y1="185" y2="125" class="net_4 width_1" style="stroke-width: 1"/><line x1="42" x2="96" y1="33" y2="33" class="net_2 width_1" style="stroke-width: 1"/><line x1="201" x2="221" y1="110" y2="110" class="net_6 width_1" style="stroke-width: 1"/><line x1="221" x2="221" y1="110" y2="205" class="net_6 width_1" style="stroke-width: 1"/><line x1="221" x2="52" y1="205" y2="205" class="net_6 width_1" style="stroke-width: 1"/><line x1="52" x2="52" y1="205" y2="53" class="net_6 width_1" style="stroke-width: 1"/><line x1="52" x2="96" y1="53" y2="53" class="net_6 width_1" style="stroke-width: 1"/></svg>